<?xml version="1.0" encoding="utf-8"?>
<!-- Generator: Adobe Illustrator 23.0.0, SVG Export Plug-In . SVG Version: 6.00 Build 0)  -->
<svg version="1.1" id="Capa_1" xmlns="http://www.w3.org/2000/svg" xmlns:xlink="http://www.w3.org/1999/xlink" x="0px" y="0px"
	 viewBox="0 0 256 256" style="enable-background:new 0 0 256 256;" xml:space="preserve">
<style type="text/css">
	.st0{display:none;}
	.st1{display:inline;}
</style>
<g class="st0">
	<g class="st1">
		<path d="M220.03,20.65c0.06-1.19-0.36-2.41-1.27-3.32c-0.91-0.91-2.12-1.33-3.32-1.27c-0.07,0-0.14-0.01-0.21-0.01h-26.46
			c-2.42,0-4.37,1.96-4.37,4.37s1.96,4.37,4.37,4.37h16.34l-43.23,43.23l-16.3-16.3c-0.82-0.82-1.93-1.28-3.09-1.28
			c-1.16,0-2.27,0.46-3.09,1.28l-78.61,78.61c-1.71,1.71-1.71,4.48,0,6.18c0.85,0.85,1.97,1.28,3.09,1.28s2.24-0.43,3.09-1.28
			L142.48,61l16.3,16.3c1.71,1.71,4.48,1.71,6.18,0l46.32-46.32v14.78c0,2.42,1.96,4.37,4.37,4.37c2.42,0,4.37-1.96,4.37-4.37V20.86
			C220.04,20.79,220.03,20.72,220.03,20.65z"/>
	</g>
</g>
<g class="st0">
	<g class="st1">
		<circle cx="49.13" cy="148.69" r="4.37"/>
	</g>
</g>
<g>
	<g>
		<g>
			<path d="M208.79,51.71c2.46,0,4.47,2.04,4.47,4.55v168.02h-29.63V56.26c0-2.51,2-4.55,4.47-4.55H208.79 M208.79,43.71h-20.69
				c-6.81,0-12.33,5.62-12.33,12.55v176.02h45.35V56.26C221.11,49.33,215.59,43.71,208.79,43.71L208.79,43.71z"/>
		</g>
	</g>
	<g>
		<g>
			<path d="M138.39,130.29c2.44,0,4.42,2.02,4.42,4.5v89.5h-29.63v-89.5c0-2.48,1.98-4.5,4.42-4.5H138.39 M138.39,122.29h-20.79
				c-6.78,0-12.28,5.6-12.28,12.5v97.5h45.35v-97.5C150.68,127.88,145.18,122.29,138.39,122.29L138.39,122.29z"/>
		</g>
	</g>
	<g>
		<g>
			<path d="M67.96,176.45c2.44,0,4.42,2.02,4.42,4.5v43.34H42.75v-43.34c0-2.48,1.98-4.5,4.42-4.5H67.96 M67.96,168.45H47.17
				c-6.78,0-12.28,5.6-12.28,12.5v51.34h45.35v-51.34C80.24,174.04,74.74,168.45,67.96,168.45L67.96,168.45z"/>
		</g>
	</g>
</g>
<g>
	<path d="M236.07,232.36H19.93c-2.17,0-3.93-1.79-3.93-4s1.76-4,3.93-4h216.14c2.17,0,3.93,1.79,3.93,4S238.24,232.36,236.07,232.36
		z"/>
</g>
</svg>
