<?xml version="1.0" encoding="utf-8"?>
<!-- Generator: Adobe Illustrator 23.0.0, SVG Export Plug-In . SVG Version: 6.00 Build 0)  -->
<svg version="1.1" id="Capa_1" xmlns="http://www.w3.org/2000/svg" xmlns:xlink="http://www.w3.org/1999/xlink" x="0px" y="0px"
	 viewBox="0 0 256 256" style="enable-background:new 0 0 256 256;" xml:space="preserve">
<path d="M19.86,240c-0.52,0-1.04-0.1-1.54-0.32c-1.41-0.61-2.33-2-2.33-3.54l0.11-182.06c0-13.21,11.38-24.01,25.36-24.08h173.04
	c0,0,0.01,0,0.01,0c14.01,0.04,25.44,10.84,25.48,24.07v121.39c-0.04,13.25-11.47,24.04-25.48,24.08H64.64L22.5,238.96
	C21.77,239.64,20.82,240,19.86,240z M41.49,37.71c-9.73,0.05-17.66,7.39-17.66,16.38l-0.1,173.16l36.75-34.37
	c0.72-0.67,1.66-1.04,2.64-1.04h151.39c9.76-0.03,17.74-7.38,17.77-16.39V54.08c-0.03-9-8-16.35-17.78-16.38H41.49z M73.25,151.38
	h109.49c3.47,0,6.28-2.8,6.28-6.26v0c0-3.46-2.81-6.26-6.28-6.26H73.25c-3.47,0-6.28,2.8-6.28,6.26v0
	C66.98,148.57,69.79,151.38,73.25,151.38z M73.25,121.03h109.49c3.47,0,6.28-2.8,6.28-6.26v0c0-3.46-2.81-6.26-6.28-6.26H73.25
	c-3.47,0-6.28,2.8-6.28,6.26v0C66.98,118.23,69.79,121.03,73.25,121.03z M73.25,90.69h109.49c3.47,0,6.28-2.8,6.28-6.26v0
	c0-3.46-2.81-6.26-6.28-6.26H73.25c-3.47,0-6.28,2.8-6.28,6.26v0C66.98,87.88,69.79,90.69,73.25,90.69z"/>
</svg>
