<?xml version="1.0" encoding="utf-8"?>
<!-- Generator: Adobe Illustrator 23.0.0, SVG Export Plug-In . SVG Version: 6.00 Build 0)  -->
<svg version="1.1" id="Capa_1" xmlns="http://www.w3.org/2000/svg" xmlns:xlink="http://www.w3.org/1999/xlink" x="0px" y="0px"
	 viewBox="0 0 256 256" style="enable-background:new 0 0 256 256;" xml:space="preserve">
<g>
	<g>
		<g>
			<path d="M109.69,16.03c-3.21,0-5.81,2.95-5.81,6.59v56.56L88.17,97.01c-1.16,1.31-1.78,3.13-1.7,4.99l5.08,115.28
				c0.12,2.49-0.67,4.92-2.19,6.71c-3.18,3.64-8.35,3.66-11.56,0.06c-0.02-0.02-0.03-0.04-0.05-0.06c-1.52-1.8-2.32-4.23-2.19-6.71
				l5.11-115.28c0.08-1.86-0.53-3.67-1.7-4.99L63.24,79.18V22.61c0-3.64-2.6-6.59-5.81-6.59s-5.81,2.95-5.81,6.59V81.9
				c0,1.75,0.61,3.42,1.7,4.66l15.59,17.7l-4.95,112.38c-0.53,12.28,7.82,22.71,18.63,23.31s20.02-8.87,20.54-21.14
				c0.03-0.72,0.03-1.44,0-2.16L98.2,104.26l15.59-17.7c1.09-1.24,1.7-2.91,1.7-4.66V22.62C115.5,18.98,112.9,16.03,109.69,16.03z"
				/>
		</g>
	</g>
	<g>
		<g>
			<path d="M74.85,16.03c-3.21,0-5.81,2.95-5.81,6.59v52.7c0,3.64,2.6,6.59,5.81,6.59c3.21,0,5.81-2.95,5.81-6.59v-52.7
				C80.66,18.98,78.06,16.03,74.85,16.03z"/>
		</g>
	</g>
	<g>
		<g>
			<path d="M92.27,16.03c-3.21,0-5.81,2.95-5.81,6.59v52.7c0,3.64,2.6,6.59,5.81,6.59s5.81-2.95,5.81-6.59v-52.7
				C98.08,18.98,95.48,16.03,92.27,16.03z"/>
		</g>
	</g>
</g>
<g>
	<path d="M189.81,240h-4.76c-8,0-14.51-7-14.51-15.6v-64.7c0-3.23-2.06-5.97-4.5-5.97h-4.76c-8,0-14.51-7-14.51-15.6V62.65
		c0-19.45,17.72-40.16,39.51-46.17c3.98-1.1,8.22-0.31,11.63,2.16c4.02,2.91,6.42,7.77,6.42,13V224.4
		C204.32,233,197.81,240,189.81,240z M189.87,25.63c-0.28,0-0.55,0.04-0.83,0.12c-19.01,5.24-32.25,23.66-32.25,36.9v75.48
		c0,3.23,2.06,5.97,4.5,5.97h4.76c8,0,14.51,7,14.51,15.6v64.7c0,3.23,2.06,5.97,4.5,5.97h4.76c2.44,0,4.5-2.73,4.5-5.97V31.64
		c0-2.18-0.93-4.21-2.43-5.3C191.23,25.87,190.56,25.63,189.87,25.63z"/>
</g>
</svg>
