<?xml version="1.0" encoding="utf-8"?>
<!-- Generator: Adobe Illustrator 23.0.0, SVG Export Plug-In . SVG Version: 6.00 Build 0)  -->
<svg version="1.1" id="Capa_1" xmlns="http://www.w3.org/2000/svg" xmlns:xlink="http://www.w3.org/1999/xlink" x="0px" y="0px"
	 viewBox="0 0 256 256" style="enable-background:new 0 0 256 256;" xml:space="preserve">
<g>
	<path d="M227.31,180.29h-9.46c0-49.54-40.31-89.85-89.85-89.85c-49.54,0-89.85,40.31-89.85,89.85h-9.46
		c0-54.76,44.55-99.31,99.31-99.31C182.76,80.98,227.31,125.53,227.31,180.29z"/>
</g>
<g>
	<path d="M233.81,207.49H22.19C14.36,207.49,8,201.12,8,193.3c0-7.82,6.36-14.19,14.19-14.19h211.63c7.82,0,14.19,6.36,14.19,14.19
		C248,201.12,241.64,207.49,233.81,207.49z M22.19,188.57c-2.61,0-4.73,2.12-4.73,4.73c0,2.61,2.12,4.73,4.73,4.73h211.63
		c2.61,0,4.73-2.12,4.73-4.73c0-2.61-2.12-4.73-4.73-4.73H22.19z"/>
</g>
<g>
	<path d="M128,78.62c-9.13,0-16.55-7.42-16.55-16.55s7.42-16.55,16.55-16.55s16.55,7.42,16.55,16.55S137.13,78.62,128,78.62z
		 M128,54.97c-3.91,0-7.09,3.18-7.09,7.09s3.18,7.09,7.09,7.09s7.09-3.18,7.09-7.09S131.91,54.97,128,54.97z"/>
</g>
<g>
	<path d="M150.46,172.02c-0.77,0-1.55-0.19-2.27-0.59c-2.29-1.26-3.12-4.13-1.86-6.42l26.01-47.29c1.26-2.29,4.13-3.12,6.42-1.86
		c2.29,1.26,3.12,4.13,1.86,6.42l-26.01,47.29C153.75,171.13,152.13,172.02,150.46,172.02z"/>
</g>
<g>
	<path d="M170.56,173.2c-0.78,0-1.56-0.19-2.29-0.6c-2.28-1.27-3.11-4.15-1.84-6.43l17.73-31.92c1.27-2.28,4.15-3.11,6.43-1.84
		c2.28,1.27,3.11,4.15,1.84,6.43l-17.73,31.92C173.83,172.32,172.22,173.2,170.56,173.2z"/>
</g>
</svg>
