<?xml version="1.0" encoding="utf-8"?>
<!-- Generator: Adobe Illustrator 23.0.0, SVG Export Plug-In . SVG Version: 6.00 Build 0)  -->
<svg version="1.1" id="Capa_1" xmlns="http://www.w3.org/2000/svg" xmlns:xlink="http://www.w3.org/1999/xlink" x="0px" y="0px"
	 viewBox="0 0 256 256" style="enable-background:new 0 0 256 256;" xml:space="preserve">
<g>
	<path d="M211.4,25.48v8c2.13,0,5.21,0.52,7.79,3.02c2.27,2.21,3.47,5.25,3.38,8.57c-0.1,3.42-1.55,6.71-4.09,9.25L78.19,194.61
		l-40.08,23.22l23.22-40.08L201.29,37.79c2.74-2.74,6.42-4.31,10.11-4.31L211.4,25.48 M211.4,25.48c-5.62,0-11.38,2.27-15.77,6.65
		l-140.7,140.7l-29.15,50.32c-2.2,3.81,0.59,7.79,4.23,7.79c0.89,0,1.84-0.24,2.77-0.78L83.1,201L224.14,59.97
		c4.12-4.12,6.28-9.43,6.43-14.67c0.15-5.34-1.77-10.62-5.81-14.54C221.09,27.21,216.3,25.48,211.4,25.48L211.4,25.48z"/>
</g>
</svg>
