<?xml version="1.0" encoding="utf-8"?>
<!-- Generator: Adobe Illustrator 23.0.0, SVG Export Plug-In . SVG Version: 6.00 Build 0)  -->
<svg version="1.1" id="Capa_1" xmlns="http://www.w3.org/2000/svg" xmlns:xlink="http://www.w3.org/1999/xlink" x="0px" y="0px"
	 viewBox="0 0 256 256" style="enable-background:new 0 0 256 256;" xml:space="preserve">
<g>
	<path d="M128.13,232.84c-5.46,0-10.54-2.46-13.92-6.75l-50.58-64.2L149.5,52.89c9.67-12.27,24.17-19.31,39.8-19.31c0,0,0,0,0,0
		c15.62,0,30.13,7.04,39.8,19.31c14.54,18.46,14.54,44.24,0,62.7l-87.05,110.49C138.67,230.37,133.59,232.84,128.13,232.84z
		 M74.42,161.88l46.45,58.96c1.76,2.24,4.41,3.53,7.26,3.53c2.85,0,5.5-1.28,7.26-3.53l87.05-110.49
		c12.11-15.37,12.11-36.85,0-52.22l0,0c-8.05-10.22-20.13-16.08-33.14-16.08c-13.01,0-25.09,5.86-33.15,16.08L74.42,161.88z"/>
</g>
<g>
	<path d="M61.4,159.1l-34.5-43.93c-14.54-18.45-14.54-44.24,0-62.7c9.67-12.27,24.17-19.31,39.8-19.31c0,0,0,0,0,0
		c15.62,0,30.13,7.04,39.8,19.31l0.01,0.01l19.39,24.75L61.4,159.1z M66.7,41.63c-13.01,0-25.09,5.86-33.15,16.08
		c-12.11,15.37-12.11,36.85,0,52.22l27.85,35.47l53.72-68.18L99.85,57.71C91.79,47.49,79.71,41.63,66.7,41.63z"/>
</g>
</svg>
