<?xml version="1.0" encoding="utf-8"?>
<!-- Generator: Adobe Illustrator 23.0.0, SVG Export Plug-In . SVG Version: 6.00 Build 0)  -->
<svg version="1.1" id="Capa_1" xmlns="http://www.w3.org/2000/svg" xmlns:xlink="http://www.w3.org/1999/xlink" x="0px" y="0px"
	 viewBox="0 0 256 256" style="enable-background:new 0 0 256 256;" xml:space="preserve">
<style type="text/css">
	.st0{fill:#FFFFFF;}
</style>
<g>
	<path d="M206.13,240.02H49.87c-1.89,0-3.42-1.44-3.42-3.2V122.34c0-0.85,0.36-1.66,1-2.27l78.13-73.11c1.34-1.25,3.51-1.25,4.84,0
		l78.13,73.11c0.64,0.6,1,1.42,1,2.27v114.48C209.56,238.58,208.02,240.02,206.13,240.02z M53.29,233.61h149.41V123.67L128,53.76
		l-74.71,69.91V233.61z"/>
</g>
<g>
	<path d="M225.22,139c-3.95,0-7.66-1.44-10.45-4.05L128,53.76l-86.77,81.19c-5.76,5.39-15.14,5.39-20.91,0
		c-2.79-2.61-4.33-6.08-4.33-9.78s1.54-7.17,4.33-9.78L125.58,16.9c1.29-1.2,3.56-1.2,4.84,0l105.25,98.49
		c2.79,2.61,4.33,6.09,4.33,9.78c0,3.7-1.54,7.17-4.33,9.78l0,0C232.88,137.56,229.17,139,225.22,139z M128,46.02
		c0.88,0,1.75,0.31,2.42,0.94l89.19,83.46c1.5,1.4,3.49,2.17,5.61,2.17s4.11-0.77,5.61-2.17l0,0c1.5-1.4,2.32-3.27,2.32-5.25
		c0-1.98-0.82-3.85-2.32-5.25L128,23.7L25.17,119.92c-1.5,1.4-2.32,3.27-2.32,5.25c0,1.98,0.82,3.85,2.32,5.25
		c1.5,1.4,3.49,2.17,5.61,2.17s4.11-0.77,5.61-2.17l89.19-83.46C126.25,46.34,127.12,46.02,128,46.02z"/>
</g>
<rect x="100.42" y="232.68" class="st0" width="53.23" height="7.68"/>
<g>
	<polygon points="158.1,240.02 150.1,240.02 150.1,164.08 105.9,164.08 105.9,240.02 97.9,240.02 97.9,156.61 158.1,156.61 	"/>
</g>
</svg>
