<?xml version="1.0" encoding="utf-8"?>
<!-- Generator: Adobe Illustrator 23.0.0, SVG Export Plug-In . SVG Version: 6.00 Build 0)  -->
<svg version="1.1" id="Capa_1" xmlns="http://www.w3.org/2000/svg" xmlns:xlink="http://www.w3.org/1999/xlink" x="0px" y="0px"
	 viewBox="0 0 256 256" style="enable-background:new 0 0 256 256;" xml:space="preserve">
<g id="ic_person_24px">
	<path d="M235.85,240H20.15c-2.29,0-4.15-1.86-4.15-4.15v-26.96c0-17.68,14.88-32.98,43.03-44.26
		c25.45-10.2,53.06-13.81,68.97-13.81s43.52,3.62,68.97,13.81c28.15,11.28,43.03,26.58,43.03,44.26v26.96
		C240,238.14,238.14,240,235.85,240z M24.3,231.7H231.7v-22.81c0-32.21-68.51-49.78-103.7-49.78c-16.37,0-43.09,4.09-65.88,13.22
		c-14.13,5.66-37.82,17.93-37.82,36.56V231.7z M128,132.15c-32.02,0-58.07-26.05-58.07-58.07S95.98,16,128,16
		c32.02,0,58.07,26.05,58.07,58.07S160.02,132.15,128,132.15z M128,24.3c-27.45,0-49.78,22.33-49.78,49.78s22.33,49.78,49.78,49.78
		c27.45,0,49.78-22.33,49.78-49.78S155.45,24.3,128,24.3z"/>
</g>
</svg>
