<?xml version="1.0" encoding="utf-8"?>
<!-- Generator: Adobe Illustrator 23.0.0, SVG Export Plug-In . SVG Version: 6.00 Build 0)  -->
<svg version="1.1" id="Capa_1" xmlns="http://www.w3.org/2000/svg" xmlns:xlink="http://www.w3.org/1999/xlink" x="0px" y="0px"
	 viewBox="0 0 256 256" style="enable-background:new 0 0 256 256;" xml:space="preserve">
<path d="M157.19,87.39l11.31,11.31l-69.55,69.55l-11.31-11.31L157.19,87.39 M157.19,76.08l-80.86,80.86l22.63,22.63l80.86-80.86
	L157.19,76.08L157.19,76.08z"/>
<path d="M35.61,129.98c3.74-3.74,9.83-3.74,13.57,0l76.84,76.84c3.74,3.74,3.74,9.83,0,13.57c-3.74,3.74-9.83,3.74-13.57,0
	l-76.84-76.84C31.87,139.81,31.87,133.72,35.61,129.98 M29.96,124.32c-6.87,6.87-6.87,18.01,0,24.89l76.84,76.84
	c6.87,6.87,18.01,6.87,24.89,0c6.87-6.87,6.87-18.01,0-24.89l-76.84-76.84C47.97,117.45,36.83,117.45,29.96,124.32L29.96,124.32z"/>
<path d="M28.35,161.18c3.74-3.74,9.83-3.74,13.57,0l52.9,52.9c3.74,3.74,3.74,9.83,0,13.57c-3.74,3.74-9.83,3.74-13.57,0l-52.9-52.9
	C24.61,171.01,24.61,164.92,28.35,161.18 M22.7,155.52L22.7,155.52c-6.87,6.87-6.87,18.01,0,24.89l52.9,52.9
	c6.87,6.87,18.01,6.87,24.89,0l0,0c6.87-6.87,6.87-18.01,0-24.89l-52.9-52.9C40.71,148.65,29.57,148.65,22.7,155.52L22.7,155.52z"/>
<path d="M130.23,35.36c3.74-3.74,9.83-3.74,13.57,0l76.84,76.84c3.74,3.74,3.74,9.83,0,13.57c-3.74,3.74-9.83,3.74-13.57,0
	l-76.84-76.84C126.49,45.19,126.49,39.1,130.23,35.36 M124.57,29.71c-6.87,6.87-6.87,18.01,0,24.89l76.84,76.84
	c6.87,6.87,18.01,6.87,24.89,0c6.87-6.87,6.87-18.01,0-24.89l-76.84-76.84C142.59,22.83,131.44,22.83,124.57,29.71L124.57,29.71z"/>
<path d="M161.43,28.1c3.74-3.74,9.83-3.74,13.57,0L227.9,81c3.74,3.74,3.74,9.83,0,13.57c-3.74,3.74-9.83,3.74-13.57,0l-52.9-52.9
	C157.69,37.93,157.69,31.85,161.43,28.1 M155.77,22.45L155.77,22.45c-6.87,6.87-6.87,18.01,0,24.89l52.9,52.9
	c6.87,6.87,18.01,6.87,24.89,0l0,0c6.87-6.87,6.87-18.01,0-24.89l-52.9-52.9C173.78,15.58,162.64,15.58,155.77,22.45L155.77,22.45z"
	/>
<path d="M43.15,201.54l11.31,11.31l-12.02,12.02c-1.51,1.51-3.52,2.34-5.66,2.34s-4.15-0.83-5.66-2.34
	c-1.51-1.51-2.34-3.52-2.34-5.66c0-2.14,0.83-4.15,2.34-5.66L43.15,201.54 M43.15,190.23L25.47,207.9c-6.25,6.25-6.25,16.38,0,22.63
	l0,0c3.12,3.12,7.22,4.69,11.31,4.69s8.19-1.56,11.31-4.69l17.68-17.68L43.15,190.23L43.15,190.23z"/>
<path d="M219.22,28.78c2.14,0,4.15,0.83,5.66,2.34c3.12,3.12,3.12,8.19,0,11.31l-12.02,12.02l-11.31-11.31l12.02-12.02
	C215.07,29.62,217.08,28.78,219.22,28.78 M219.22,20.78c-4.09,0-8.19,1.56-11.31,4.69l-17.68,17.68l22.63,22.63l17.68-17.68
	c6.25-6.25,6.25-16.38,0-22.63l0,0C227.41,22.35,223.31,20.78,219.22,20.78L219.22,20.78z"/>
</svg>
