<?xml version="1.0" encoding="utf-8"?>
<!-- Generator: Adobe Illustrator 23.0.0, SVG Export Plug-In . SVG Version: 6.00 Build 0)  -->
<svg version="1.1" id="Capa_1" xmlns="http://www.w3.org/2000/svg" xmlns:xlink="http://www.w3.org/1999/xlink" x="0px" y="0px"
	 viewBox="0 0 256 256" style="enable-background:new 0 0 256 256;" xml:space="preserve">
<g id="Clocks_1_">
	<path id="Clocks" d="M199.44,23.96c-4.14-0.38-8.08,0.98-10.81,3.71l-4.11,4.11l-3.32-3.32c-5.97-5.97-16-5.64-22.37,0.73
		l-5.42,5.42l-6.13-6.13c-2.88-2.88-6.93-4.47-11.1-4.35c-8.28,0.23-15.65,7.6-15.88,15.88c-0.12,4.17,1.47,8.22,4.35,11.1
		l28.76,28.76l-73.54,73.54l-28.76-28.76c-2.88-2.88-6.93-4.47-11.1-4.35c-8.28,0.23-15.65,7.6-15.88,15.88
		c-0.12,4.17,1.47,8.21,4.35,11.1l6.13,6.13l-6.08,6.08c-2.86,2.86-4.53,6.6-4.71,10.52c-0.17,3.99,1.3,7.85,4.03,10.58l3.93,3.93
		l-4.07,4.07c-2.75,2.75-4.11,6.71-3.73,10.86c0.36,3.94,2.2,7.75,5.18,10.73l16.56,16.56c2.98,2.98,6.79,4.82,10.73,5.18
		c4.15,0.38,8.11-0.98,10.86-3.73l4.07-4.07l3.93,3.93c2.73,2.73,6.59,4.2,10.59,4.03c3.92-0.18,7.66-1.85,10.52-4.71l6.08-6.08
		l6.13,6.13c2.88,2.88,6.93,4.47,11.09,4.35c4.14-0.12,8.07-1.83,11.06-4.82c2.99-2.99,4.7-6.92,4.82-11.06
		c0.12-4.17-1.47-8.21-4.35-11.09l-28.76-28.76l73.54-73.54l28.76,28.76c2.88,2.88,6.93,4.47,11.09,4.35
		c4.14-0.12,8.07-1.83,11.06-4.82c2.99-2.99,4.7-6.92,4.82-11.06c0.12-4.17-1.47-8.21-4.35-11.09l-6.13-6.13l5.42-5.42
		c6.37-6.37,6.69-16.4,0.73-22.37l-3.32-3.32l4.11-4.11c2.74-2.74,4.09-6.68,3.72-10.82c-0.36-3.92-2.19-7.72-5.15-10.69
		l-16.66-16.66C207.16,26.15,203.37,24.32,199.44,23.96z M61.65,222.53c-1.08,1.08-2.67,1.58-4.47,1.42
		c-2.05-0.18-4.17-1.23-5.8-2.87l-16.56-16.56c-1.63-1.63-2.68-3.75-2.87-5.8c-0.16-1.8,0.34-3.39,1.42-4.47l4.07-4.07l28.28,28.28
		C65.73,218.46,61.65,222.53,61.65,222.53z M90.76,221.71c-1.42,1.42-3.32,2.29-5.2,2.37c-1.79,0.08-3.42-0.53-4.59-1.7l-6.75-6.75
		l-33.94-33.94l-6.75-6.75c-1.17-1.17-1.78-2.8-1.7-4.58c0.09-1.89,0.95-3.79,2.37-5.21l6.08-6.08l56.57,56.57
		C96.84,215.63,90.76,221.71,90.76,221.71z M125.59,210.45c1.35,1.35,2.07,3.2,2.01,5.21c-0.12,4.12-3.99,8-8.11,8.11
		c-2.01,0.06-3.86-0.66-5.21-2.01l-8.96-8.96L43.1,150.58l-8.96-8.96c-1.35-1.35-2.07-3.2-2.01-5.21c0.06-2.06,0.96-4.12,2.48-5.63
		c1.52-1.52,3.57-2.42,5.63-2.48c2-0.06,3.86,0.66,5.21,2.01l31.58,31.58l16.97,16.97L125.59,210.45z M96.84,170.38l-11.31-11.31
		l73.54-73.54l11.31,11.31L96.84,170.38z M221.76,114.28c1.35,1.35,2.07,3.2,2.01,5.21c-0.12,4.12-3.99,8-8.11,8.11
		c-2.01,0.06-3.86-0.66-5.21-2.01l-31.58-31.58l-16.97-16.97l-31.58-31.58c-1.35-1.35-2.07-3.2-2.01-5.21
		c0.06-2.06,0.96-4.12,2.48-5.63c1.52-1.52,3.57-2.42,5.63-2.48c2-0.06,3.85,0.66,5.21,2.01l8.96,8.96l62.22,62.22L221.76,114.28z
		 M221.78,80.36c2.85,2.85,2.52,7.81-0.73,11.06l-5.42,5.42l-56.57-56.57l5.42-5.42c3.25-3.25,8.21-3.58,11.06-0.73l6.15,6.15
		l33.94,33.94L221.78,80.36z M221.13,51.43c1.62,1.62,2.66,3.72,2.85,5.75c0.16,1.79-0.34,3.37-1.4,4.43l-4.11,4.11l-28.28-28.28
		l4.11-4.11c1.07-1.07,2.64-1.57,4.43-1.4c2.03,0.18,4.13,1.22,5.75,2.85L221.13,51.43z"/>
</g>
</svg>
