<?xml version="1.0" encoding="utf-8"?>
<!-- Generator: Adobe Illustrator 23.0.0, SVG Export Plug-In . SVG Version: 6.00 Build 0)  -->
<svg version="1.1" id="Capa_1" xmlns="http://www.w3.org/2000/svg" xmlns:xlink="http://www.w3.org/1999/xlink" x="0px" y="0px"
	 viewBox="0 0 256 256" style="enable-background:new 0 0 256 256;" xml:space="preserve">
<g id="ic_group_24px">
	<path d="M236.14,239.68h-58.98c-2.13,0-3.86-1.61-3.86-3.6v-58.32c-0.38-11.7-6.94-22.41-17.56-28.64c-1.4-0.82-2.09-2.39-1.7-3.9
		c0.39-1.5,1.77-2.61,3.42-2.74c4.03-0.32,7.17-0.47,9.87-0.47c21.39,0,72.68,10.27,72.68,35.7v58.37
		C240,238.06,238.27,239.68,236.14,239.68z M181.02,232.47h51.26V177.7c0-17.48-41.13-28.25-64.19-28.49
		c7.9,7.52,12.59,17.6,12.93,28.39c0,0.03,0,0.07,0,0.1V232.47z M157.49,239.68H19.86c-2.13,0-3.86-1.61-3.86-3.6V177.7
		c0-25.43,51.29-35.7,72.68-35.7s72.68,10.27,72.68,35.7v58.37C161.35,238.06,159.63,239.68,157.49,239.68z M23.72,232.47h129.91
		V177.7c0-17.68-42.05-28.49-64.95-28.49s-64.95,10.82-64.95,28.49V232.47z"/>
</g>
<g>
	<path d="M88.5,131C68.37,131,52,114.63,52,94.5S68.37,58,88.5,58S125,74.37,125,94.5S108.63,131,88.5,131z M88.5,66
		C72.79,66,60,78.79,60,94.5S72.79,123,88.5,123S117,110.21,117,94.5S104.21,66,88.5,66z"/>
</g>
<g>
	<path d="M168.5,131c-20.13,0-36.5-16.37-36.5-36.5S148.37,58,168.5,58S205,74.37,205,94.5S188.63,131,168.5,131z M168.5,66
		C152.79,66,140,78.79,140,94.5s12.79,28.5,28.5,28.5S197,110.21,197,94.5S184.21,66,168.5,66z"/>
</g>
</svg>
