<?xml version="1.0" encoding="utf-8"?>
<!-- Generator: Adobe Illustrator 23.0.5, SVG Export Plug-In . SVG Version: 6.00 Build 0)  -->
<svg version="1.1" id="Capa_1" xmlns="http://www.w3.org/2000/svg" xmlns:xlink="http://www.w3.org/1999/xlink" x="0px" y="0px"
	 viewBox="0 0 512 512" style="enable-background:new 0 0 512 512;" xml:space="preserve">
<style type="text/css">
	.st0{fill:#F2F2F2;}
	.st1{fill:#484646;}
</style>
<rect class="st0" width="512" height="512"/>
<path id="user-circle" class="st1" d="M256,15L256,15C122.7,15,14.6,123,14.6,256.3c0,133.3,108,241.3,241.3,241.3
	c133.3,0,241.3-108,241.3-241.3v0C497.2,123,389.2,15,256,15z M195.4,133.5c15.5-15.5,36.9-25.1,60.5-25.1
	c47.3,0,85.6,38.3,85.6,85.6c0,47.3-38.3,85.6-85.6,85.6c-47.3,0-85.6-38.3-85.6-85.6C170.3,170.4,179.9,149,195.4,133.5z
	 M255.9,443.1c-55,0-107.1-24.3-142.5-66.4c18.7-35.7,55.6-58.1,95.8-58.2c2.3,0,4.7,0.4,6.9,1.1c12.8,4.3,26.3,6.6,39.8,6.7
	c13.5-0.1,27-2.4,39.8-6.7c2.2-0.7,4.6-1.1,6.9-1.1c40.3,0.1,77.2,22.5,95.8,58.2C363,418.8,310.9,443,255.9,443.1z"/>
</svg>
