<?xml version="1.0" encoding="utf-8"?>
<!-- Generator: Adobe Illustrator 23.0.0, SVG Export Plug-In . SVG Version: 6.00 Build 0)  -->
<svg version="1.1" id="Capa_1" xmlns="http://www.w3.org/2000/svg" xmlns:xlink="http://www.w3.org/1999/xlink" x="0px" y="0px"
	 viewBox="0 0 432 343.6" style="enable-background:new 0 0 432 343.6;" xml:space="preserve">
<style type="text/css">
	.st0{fill:#009688;}
</style>
<path id="Trazado_390" class="st0" d="M312.7,53.4L312.7,53.4c-15.6-19.7-44.5-23-64.4-7.6c-2.9,2.2-5.4,4.7-7.7,7.6L158,156.7
	l48,59.8c4.5,5.7,13,6.6,18.7,2.2c0.8-0.7,1.5-1.4,2.2-2.2l86-107.4C326,92.8,326,69.6,312.7,53.4z"/>
<path id="Trazado_391" class="st0" d="M191.6,53c-15.6-19.6-44.5-23-64.4-7.6c-2.9,2.2-5.4,4.7-7.7,7.6l0,0
	c-13.1,16.4-13.1,39.4,0,55.8l30.9,38.6l58.4-72.9L191.6,53z"/>
<path id="Trazado_392" class="st0" d="M312.7,53.4L312.7,53.4c-15.6-19.7-44.5-23-64.4-7.6c-2.9,2.2-5.4,4.7-7.7,7.6L158,156.7
	l48,59.8c4.5,5.7,13,6.6,18.7,2.2c0.8-0.7,1.5-1.4,2.2-2.2l86-107.4C326,92.8,326,69.6,312.7,53.4z"/>
<path id="Trazado_393" class="st0" d="M191.6,53c-15.6-19.6-44.5-23-64.4-7.6c-2.9,2.2-5.4,4.7-7.7,7.6l0,0
	c-13.1,16.4-13.1,39.4,0,55.8l30.9,38.6l58.4-72.9L191.6,53z"/>
<path class="st0" d="M137.6,269.7c0.7,0.6,1,1.4,1,2.5v22.5c0,4.4-1.2,7.7-3.7,9.9c-2.5,2.2-6.1,3.3-10.9,3.3
	c-4.3,0-7.7-0.8-10.5-2.3c-1.4-0.8-2.2-1.8-2.2-3c0-0.8,0.1-1.5,0.6-1.9c0.4-0.6,1-0.7,1.7-0.7c0.4,0,0.8,0.1,1.2,0.3
	c0.6,0.1,1,0.4,1.5,0.6c1.4,0.6,2.6,1,3.7,1.4c1.1,0.3,2.3,0.4,3.9,0.4c5.1,0,7.6-2.5,7.6-7.3v-3.6c-0.8,1.5-2.1,2.8-3.7,3.6
	c-1.7,0.8-3.4,1.2-5.5,1.2c-2.5,0-4.7-0.6-6.6-1.8c-1.9-1.1-3.4-2.8-4.5-4.8c-1.1-2.1-1.7-4.5-1.7-7.2s0.6-5.1,1.7-7.3
	c1.1-2.1,2.6-3.7,4.5-5c1.9-1.1,4.1-1.8,6.6-1.8c2.1,0,4,0.4,5.5,1.2c1.7,0.8,2.9,2.1,3.7,3.6v-1.5c0-1,0.3-1.8,1-2.3s1.5-1,2.6-1
	C136.1,268.8,137,269.2,137.6,269.7z M129.4,288.7c1.2-1.5,1.9-3.4,1.9-6.1s-0.7-4.7-1.9-6.2c-1.2-1.5-3-2.2-5.4-2.2
	s-4.1,0.7-5.4,2.2c-1.4,1.5-1.9,3.6-1.9,6.2s0.7,4.5,1.9,6.1c1.4,1.5,3.2,2.2,5.4,2.2C126.4,290.9,128.2,290.1,129.4,288.7z"/>
<path class="st0" d="M151.4,295.9c-2.2-1.2-3.9-2.9-5.1-5.1c-1.2-2.2-1.8-4.8-1.8-7.7c0-2.9,0.6-5.5,1.8-7.7
	c1.2-2.2,2.9-3.9,5.1-5.1c2.2-1.2,4.7-1.8,7.6-1.8c2.9,0,5.4,0.6,7.6,1.8s3.9,2.9,5.1,5.1c1.2,2.2,1.8,4.7,1.8,7.7
	c0,3-0.6,5.5-1.8,7.7c-1.2,2.2-2.9,3.9-5.1,5.1c-2.2,1.2-4.7,1.8-7.6,1.8C156,297.7,153.6,297.1,151.4,295.9z M164.3,289.8
	c1.2-1.5,1.8-3.7,1.8-6.8c0-2.9-0.6-5.1-1.8-6.8c-1.2-1.5-3-2.3-5.4-2.3c-2.3,0-4.1,0.8-5.4,2.3c-1.2,1.5-1.9,3.7-1.9,6.8
	c0,2.9,0.6,5.2,1.8,6.8c1.2,1.5,3,2.3,5.4,2.3C161.3,292.2,163.1,291.4,164.3,289.8z"/>
<path class="st0" d="M184.7,295.9c-2.2-1.2-3.9-2.9-5.1-5.1c-1.2-2.2-1.8-4.8-1.8-7.7c0-2.9,0.6-5.5,1.8-7.7
	c1.2-2.2,2.9-3.9,5.1-5.1c2.2-1.2,4.7-1.8,7.6-1.8s5.4,0.6,7.6,1.8c2.2,1.2,3.9,2.9,5.1,5.1s1.8,4.7,1.8,7.7c0,3-0.6,5.5-1.8,7.7
	c-1.2,2.2-2.9,3.9-5.1,5.1c-2.2,1.2-4.7,1.8-7.6,1.8S186.8,297.1,184.7,295.9z M197.7,289.8c1.2-1.5,1.8-3.7,1.8-6.8
	c0-2.9-0.6-5.1-1.8-6.8c-1.2-1.5-3-2.3-5.4-2.3s-4.1,0.8-5.4,2.3s-1.9,3.7-1.9,6.8c0,2.9,0.6,5.2,1.8,6.8c1.2,1.5,3,2.3,5.4,2.3
	C194.6,292.2,196.4,291.4,197.7,289.8z"/>
<path class="st0" d="M238.9,257.7c0.7,0.6,1.1,1.4,1.1,2.3v34c0,1-0.3,1.8-1,2.5c-0.7,0.6-1.5,1-2.6,1c-1.1,0-1.9-0.3-2.6-1
	c-0.7-0.6-1-1.4-1-2.5v-1.4c-0.8,1.5-2.1,2.8-3.7,3.6c-1.7,0.8-3.4,1.4-5.5,1.4c-2.5,0-4.5-0.6-6.5-1.8s-3.4-2.9-4.4-5.1
	c-1.1-2.2-1.7-4.8-1.7-7.7c0-2.9,0.6-5.4,1.7-7.6c1.1-2.2,2.5-3.9,4.4-5c1.9-1.2,4.1-1.8,6.5-1.8c2.1,0,3.9,0.4,5.4,1.2
	c1.5,0.8,2.8,2.1,3.6,3.6v-13.5c0-1,0.3-1.7,1-2.3c0.7-0.6,1.5-0.8,2.6-0.8C237.4,256.8,238.2,257,238.9,257.7z M230.9,289.8
	c1.2-1.5,1.9-3.7,1.9-6.6c0-2.9-0.7-5.1-1.9-6.6s-3-2.3-5.2-2.3c-2.3,0-4.1,0.8-5.4,2.3c-1.2,1.5-1.9,3.7-1.9,6.6
	c0,2.9,0.7,5.1,1.9,6.8c1.2,1.7,3,2.3,5.4,2.3C227.8,292.2,229.6,291.4,230.9,289.8z"/>
<path class="st0" d="M288.2,271.4c1.7,1.8,2.5,4.7,2.5,8.7v14.1c0,1.1-0.3,1.9-1,2.5s-1.5,0.8-2.6,0.8c-1.1,0-1.9-0.3-2.6-0.8
	c-0.7-0.6-1-1.4-1-2.5v-13.9c0-2.1-0.4-3.6-1.1-4.4s-1.9-1.4-3.4-1.4c-1.9,0-3.4,0.7-4.5,1.9s-1.7,3-1.7,5.2v12.7
	c0,1.1-0.3,1.9-1,2.5c-0.7,0.6-1.5,0.8-2.6,0.8s-1.9-0.3-2.6-0.8c-0.7-0.6-1.1-1.4-1.1-2.5v-14.1c0-2.1-0.4-3.6-1.1-4.4
	s-1.9-1.4-3.4-1.4c-1.9,0-3.4,0.7-4.5,1.9c-1.1,1.2-1.7,3-1.7,5.2v12.7c0,1.1-0.4,1.9-1.1,2.5c-0.7,0.6-1.5,0.8-2.6,0.8
	c-1.1,0-1.9-0.3-2.6-0.8c-0.7-0.6-1-1.4-1-2.5v-22.1c0-1.1,0.4-1.9,1.1-2.5s1.5-0.8,2.6-0.8c1,0,1.8,0.3,2.5,0.8
	c0.7,0.6,1,1.4,1,2.3v1.4c0.8-1.5,2.1-2.6,3.6-3.4c1.5-0.8,3.2-1.2,5.1-1.2c4.3,0,7,1.8,8.5,5.2c0.8-1.7,2.1-2.9,3.7-3.9
	s3.6-1.4,5.7-1.4C284.2,268.8,286.6,269.6,288.2,271.4z"/>
<path class="st0" d="M322,290.4c0.4,0.6,0.6,1.1,0.6,1.9c0,1.2-0.7,2.2-2.2,2.9c-1.4,0.7-2.8,1.2-4.4,1.8c-1.7,0.4-3.3,0.7-4.7,0.7
	c-4.5,0-8.1-1.2-10.9-3.9c-2.6-2.6-4-6.1-4-10.6c0-2.9,0.6-5.4,1.8-7.6c1.1-2.2,2.8-3.9,4.8-5.1s4.5-1.8,7.2-1.8
	c2.5,0,4.8,0.6,6.6,1.7c1.8,1.1,3.3,2.6,4.4,4.7c1.1,2.1,1.5,4.4,1.5,7.2c0,1.7-0.7,2.5-2.2,2.5h-17.1c0.3,2.6,1,4.5,2.2,5.8
	c1.2,1.2,3.2,1.8,5.5,1.8c1.2,0,2.3-0.1,3.3-0.4c1-0.3,2.1-0.7,3.2-1.2c1.1-0.6,2.1-1,2.5-1C321,289.6,321.6,289.8,322,290.4z
	 M305.6,275.5c-1.2,1.2-1.9,2.9-2.1,5.2h13.1c-0.1-2.3-0.7-4.1-1.8-5.2c-1.1-1.2-2.6-1.8-4.5-1.8
	C308.3,273.7,306.8,274.3,305.6,275.5z"/>
</svg>
